# Blender 3.5.0
# www.blender.org
mtllib man4.mtl
o Cube
v 0.828085 2.000000 0.579628
v 0.721235 -1.000000 0.579628
v 0.828085 2.000000 -0.429060
v 0.721235 -1.000000 -0.429060
v 1.092190 3.225046 0.579628
v 1.092190 3.225046 -0.429060
v 2.298397 -0.165635 0.579628
v 2.298397 -0.165635 -0.429060
v 2.000000 1.512186 0.579628
v 2.000000 1.512186 -0.429060
v 0.000000 -1.000000 -0.429060
v -0.000000 -1.000000 0.579628
v 0.360378 -4.000000 -0.429060
v 1.360378 -4.000000 0.579628
v 1.360378 -4.000000 -0.429060
v 0.360378 -4.000000 0.579628
v -0.000000 2.000000 0.579628
v 0.000000 2.000000 -0.429060
v -0.000000 3.225046 0.579628
v 0.000000 3.225046 -0.429060
v 1.513738 1.077854 0.579628
v 1.000000 1.081599 -0.429060
v 2.298397 1.077854 0.579628
v 2.298397 1.077854 -0.429060
v 1.513738 -0.165635 0.579628
v 1.513738 -0.165635 -0.429060
v 1.000000 1.081599 0.579628
v 1.513738 1.077854 -0.429060
v 0.707344 2.500000 -0.429060
v 0.707344 2.500000 0.579628
v 0.000000 2.500000 -0.429060
v -0.000000 2.500000 0.579628
v 0.311949 -3.596847 -0.429060
v 0.311949 -3.596847 0.579628
v 1.274487 -3.596847 0.579628
v 1.274487 -3.596847 -0.429060
v 1.513738 0.060016 -0.429060
v 2.298397 0.060016 0.579628
v 2.298397 0.060016 -0.429060
v 1.513738 0.060016 0.579628
v -0.828085 2.000000 0.579628
v -0.721235 -1.000000 0.579628
v -0.828085 2.000000 -0.429060
v -0.721235 -1.000000 -0.429060
v -1.092190 3.225046 0.579628
v -1.092190 3.225046 -0.429060
v -2.298397 -0.165635 0.579628
v -2.298397 -0.165635 -0.429061
v -2.000000 1.512186 0.579628
v -2.000000 1.512186 -0.429061
v -0.360378 -4.000000 -0.429060
v -1.360378 -4.000000 0.579628
v -1.360378 -4.000000 -0.429060
v -0.360378 -4.000000 0.579628
v -1.513738 1.077854 0.579628
v -1.000000 1.081599 -0.429060
v -2.298397 1.077854 0.579628
v -2.298397 1.077854 -0.429061
v -1.513738 -0.165635 0.579628
v -1.513738 -0.165635 -0.429060
v -1.000000 1.081599 0.579628
v -1.513738 1.077854 -0.429060
v -0.707344 2.500000 -0.429060
v -0.707344 2.500000 0.579628
v -0.311949 -3.596847 -0.429060
v -0.311949 -3.596847 0.579628
v -1.274487 -3.596847 0.579628
v -1.274487 -3.596847 -0.429060
v -1.513738 0.060016 -0.429060
v -2.298397 0.060016 0.579628
v -2.298397 0.060016 -0.429061
v -1.513738 0.060016 0.579628
vn 0.8833 -0.4688 -0.0000
vn -0.0000 -0.0000 1.0000
vn -0.0000 -1.0000 -0.0000
vn 0.8242 0.5663 -0.0000
vn 0.3843 0.9232 -0.0000
vn -0.0000 -0.0000 -1.0000
vn 0.9780 0.2084 -0.0000
vn -0.0000 1.0000 -0.0000
vn -0.9929 -0.1193 -0.0000
vn 1.0000 -0.0000 -0.0000
vn 0.9912 -0.1327 -0.0000
vn -1.0000 -0.0000 -0.0000
vn -0.0029 -1.0000 -0.0000
vn 0.9721 0.2347 -0.0000
vn -0.8833 -0.4688 -0.0000
vn -0.8242 0.5663 -0.0000
vn -0.3843 0.9232 -0.0000
vn -0.9780 0.2084 -0.0000
vn 0.9929 -0.1193 -0.0000
vn -0.9912 -0.1327 -0.0000
vn 0.0029 -1.0000 -0.0000
vn -0.9721 0.2347 -0.0000
vt 0.603027 0.836001
vt 0.735352 0.942803
vt 0.108632 0.787106
vt 0.603027 0.401875
vt 0.094615 0.393553
vt 0.867676 0.942803
vt 0.494395 0.787106
vt 0.735352 0.836001
vt 0.735352 0.401875
vt 0.508413 0.393553
vt 0.867676 0.000000
vt 0.603027 0.989164
vt 0.143278 0.947813
vt 0.459749 0.947813
vt 0.735352 0.989164
vt 1.000000 0.000000
vt 0.970611 0.732957
vt 0.970611 0.274380
vt 0.735352 0.395674
vt 0.867676 0.395674
vt 0.970611 0.600633
vt 0.867676 0.437506
vt 0.735352 0.619202
vt 0.735352 0.782037
vt 0.262369 0.723113
vt 0.867676 0.619202
vt 0.867676 0.782037
vt 0.340659 0.723112
vt 0.735352 0.395674
vt 0.603027 0.393553
vt 0.000000 0.393553
vt 0.867676 0.395674
vt 0.735352 0.000000
vt 0.867676 0.142056
vt 0.555752 0.000000
vt 0.178460 0.000000
vt 0.998860 0.274380
vt 0.603027 0.000000
vt 0.998860 0.142056
vt 0.424567 0.000000
vt 0.735352 0.000000
vt 0.047276 0.000000
vt 0.867676 0.274380
vt 0.867676 0.000000
vt 0.000000 0.787106
vt 0.603027 0.787106
vt 0.000000 0.947813
vt 0.867676 0.142056
vt 1.000000 0.142056
vt 0.603027 0.947813
vt 0.867676 0.437506
vt 0.867676 0.782037
vt 0.867676 0.732957
vt 0.471843 0.666626
vt 0.735352 0.665671
vt 0.603027 0.836001
vt 0.301514 0.666135
vt 0.735352 0.556729
vt 0.735352 0.665671
vt 0.969733 0.732957
vt 0.970611 0.437506
vt 0.301514 0.666135
vt 0.867676 0.600633
vt 0.867676 0.556729
vt 0.603027 0.665671
vt 0.969733 0.865281
vt 0.867676 0.732957
vt 0.867676 0.619202
vt 0.867676 0.274380
vt 0.970611 0.437506
vt 0.867676 0.600633
vt 0.735352 0.619202
vt 0.735352 0.836001
vt 0.131184 0.666626
vt 0.603027 0.665671
vt 0.867676 0.865281
vt 0.970611 0.600633
vt 0.735352 0.782037
vt 0.510235 0.852698
vt 0.735352 0.903277
vt 0.092792 0.852698
vt 0.603027 0.903277
vt 0.603027 0.852698
vt 0.000000 0.852698
vt 0.735352 0.053173
vt 0.562105 0.052887
vt 0.867676 0.053173
vt 0.040923 0.052887
vt 0.167193 0.052887
vt 0.603027 0.054006
vt 0.735352 0.054006
vt 0.435835 0.052887
vt 0.735352 0.648751
vt 0.970611 0.467108
vt 0.735352 0.424900
vt 0.970611 0.303982
vt 0.867676 0.424900
vt 0.867676 0.467108
vt 0.867676 0.648751
vt 0.867676 0.303982
vt 0.603027 0.836001
vt 0.108632 0.787106
vt 0.735352 0.942803
vt 0.603027 0.401875
vt 0.094615 0.393553
vt 0.867676 0.942803
vt 0.494395 0.787106
vt 0.735352 0.836001
vt 0.735352 0.401875
vt 0.508413 0.393553
vt 0.867676 0.000000
vt 0.603027 0.989164
vt 0.143278 0.947813
vt 0.735352 0.989164
vt 1.000000 0.000000
vt 0.459749 0.947813
vt 0.970611 0.732957
vt 0.970611 0.274380
vt 0.735352 0.395674
vt 0.867676 0.395674
vt 0.970611 0.600633
vt 0.867676 0.437506
vt 0.735352 0.619202
vt 0.735352 0.782037
vt 0.262369 0.723113
vt 0.867676 0.619202
vt 0.867676 0.782037
vt 0.340659 0.723112
vt 0.735352 0.000000
vt 0.867676 0.142056
vt 0.555752 0.000000
vt 0.178460 0.000000
vt 0.998860 0.274380
vt 0.603027 0.000000
vt 0.998860 0.142056
vt 0.424567 0.000000
vt 0.735352 0.000000
vt 0.047276 0.000000
vt 0.867676 0.274380
vt 0.867676 0.000000
vt 0.867676 0.437506
vt 0.867676 0.782037
vt 0.867676 0.732957
vt 0.471843 0.666626
vt 0.735352 0.665671
vt 0.603027 0.836001
vt 0.301514 0.666135
vt 0.735352 0.556729
vt 0.735352 0.665671
vt 0.969733 0.732957
vt 0.970611 0.437506
vt 0.301514 0.666135
vt 0.867676 0.600633
vt 0.867676 0.556729
vt 0.603027 0.665671
vt 0.969733 0.865281
vt 0.867676 0.732957
vt 0.867676 0.619202
vt 0.867676 0.274380
vt 0.970611 0.437506
vt 0.867676 0.600633
vt 0.735352 0.619202
vt 0.735352 0.836001
vt 0.131184 0.666626
vt 0.603027 0.665671
vt 0.867676 0.865281
vt 0.970611 0.600633
vt 0.735352 0.782037
vt 0.510235 0.852698
vt 0.735352 0.903277
vt 0.092792 0.852698
vt 0.603027 0.903277
vt 0.735352 0.053173
vt 0.562105 0.052887
vt 0.867676 0.053173
vt 0.040923 0.052887
vt 0.603027 0.054006
vt 0.167193 0.052887
vt 0.735352 0.054006
vt 0.435835 0.052887
vt 0.735352 0.648751
vt 0.970611 0.467108
vt 0.735352 0.424900
vt 0.970611 0.303982
vt 0.867676 0.424900
vt 0.867676 0.467108
vt 0.867676 0.648751
vt 0.867676 0.303982
s 0
usemtl Material
f 29/80/1 5/12/1 30/82/1
f 27/74/2 17/45/2 12/31/2
f 35/89/2 16/42/2 14/36/2
f 26/71/3 7/17/3 25/67/3
f 30/81/2 19/47/2 32/84/2
f 10/26/4 23/58/4 24/64/4
f 1/2/5 10/27/5 3/6/5
f 25/69/2 38/96/2 40/100/2
f 22/54/6 10/28/6 24/62/6
f 14/37/3 13/34/3 15/39/3
f 36/92/6 13/35/6 33/86/6
f 35/90/7 15/41/7 36/91/7
f 6/16/8 19/48/8 5/11/8
f 29/79/6 20/50/6 6/14/6
f 34/87/9 11/29/9 33/85/9
f 28/77/6 39/98/6 37/94/6
f 27/74/2 9/25/2 1/3/2
f 24/64/10 38/95/10 39/97/10
f 18/46/6 22/54/6 4/10/6
f 4/9/11 27/75/11 2/4/11
f 21/52/12 37/93/12 40/99/12
f 22/56/13 23/59/13 27/73/13
f 21/53/8 24/66/8 28/76/8
f 18/46/6 29/79/6 3/7/6
f 17/45/2 30/81/2 32/84/2
f 3/8/14 30/82/14 1/1/14
f 16/44/9 33/85/9 13/33/9
f 2/4/7 36/91/7 4/9/7
f 4/10/6 33/86/6 11/30/6
f 2/5/2 34/88/2 35/89/2
f 40/99/12 26/72/12 25/68/12
f 39/97/10 7/19/10 8/20/10
f 37/94/6 8/22/6 26/70/6
f 40/100/2 23/61/2 21/51/2
f 45/112/15 63/170/15 64/172/15
f 12/31/2 41/102/2 61/164/2
f 67/178/2 54/138/2 66/176/2
f 47/117/3 60/161/3 59/157/3
f 19/47/2 64/171/2 32/84/2
f 57/148/16 50/126/16 58/154/16
f 50/127/17 41/103/17 43/106/17
f 70/184/2 59/159/2 72/188/2
f 56/144/6 50/128/6 43/107/6
f 51/130/3 52/133/3 53/135/3
f 51/131/6 68/180/6 65/174/6
f 53/137/18 67/177/18 68/179/18
f 19/48/8 46/115/8 45/111/8
f 63/169/6 20/50/6 31/83/6
f 11/29/19 66/175/19 65/173/19
f 71/186/6 62/167/6 69/182/6
f 49/125/2 61/164/2 41/102/2
f 70/183/12 58/154/12 71/185/12
f 44/110/6 43/107/6 18/46/6
f 61/165/20 44/109/20 42/104/20
f 69/181/10 55/142/10 72/187/10
f 57/149/21 56/146/21 61/163/21
f 58/156/8 55/143/8 62/166/8
f 63/169/6 18/46/6 43/107/6
f 17/45/2 64/171/2 41/102/2
f 64/172/22 43/108/22 41/101/22
f 65/173/19 54/140/19 51/129/19
f 68/179/18 42/104/18 44/109/18
f 65/174/6 44/110/6 11/30/6
f 42/105/2 66/176/2 12/31/2
f 60/162/10 72/187/10 59/158/10
f 47/119/12 71/185/12 48/120/12
f 48/122/6 69/182/6 60/160/6
f 57/151/2 72/188/2 55/141/2
f 29/80/1 6/15/1 5/12/1
f 12/31/2 2/5/2 27/74/2
f 27/74/2 1/3/2 17/45/2
f 35/89/2 34/88/2 16/42/2
f 26/71/3 8/21/3 7/17/3
f 30/81/2 5/13/2 19/47/2
f 10/26/4 9/23/4 23/58/4
f 1/2/5 9/24/5 10/27/5
f 25/69/2 7/18/2 38/96/2
f 22/54/6 3/7/6 10/28/6
f 14/37/3 16/43/3 13/34/3
f 36/92/6 15/40/6 13/35/6
f 35/90/7 14/38/7 15/41/7
f 6/16/8 20/49/8 19/48/8
f 29/79/6 31/83/6 20/50/6
f 34/87/9 12/32/9 11/29/9
f 28/77/6 24/63/6 39/98/6
f 27/74/2 23/57/2 9/25/2
f 24/64/10 23/58/10 38/95/10
f 4/10/6 11/30/6 18/46/6
f 18/46/6 3/7/6 22/54/6
f 4/9/11 22/55/11 27/75/11
f 21/52/12 28/78/12 37/93/12
f 22/56/13 24/65/13 23/59/13
f 21/53/8 23/60/8 24/66/8
f 18/46/6 31/83/6 29/79/6
f 17/45/2 1/3/2 30/81/2
f 3/8/14 29/80/14 30/82/14
f 16/44/9 34/87/9 33/85/9
f 2/4/7 35/90/7 36/91/7
f 4/10/6 36/92/6 33/86/6
f 2/5/2 12/31/2 34/88/2
f 40/99/12 37/93/12 26/72/12
f 39/97/10 38/95/10 7/19/10
f 37/94/6 39/98/6 8/22/6
f 40/100/2 38/96/2 23/61/2
f 45/112/15 46/114/15 63/170/15
f 61/164/2 42/105/2 12/31/2
f 12/31/2 17/45/2 41/102/2
f 67/178/2 52/132/2 54/138/2
f 47/117/3 48/121/3 60/161/3
f 19/47/2 45/113/2 64/171/2
f 57/148/16 49/123/16 50/126/16
f 50/127/17 49/124/17 41/103/17
f 70/184/2 47/118/2 59/159/2
f 56/144/6 58/152/6 50/128/6
f 51/130/3 54/139/3 52/133/3
f 51/131/6 53/136/6 68/180/6
f 53/137/18 52/134/18 67/177/18
f 19/48/8 20/49/8 46/115/8
f 63/169/6 46/116/6 20/50/6
f 11/29/19 12/32/19 66/175/19
f 71/186/6 58/153/6 62/167/6
f 49/125/2 57/147/2 61/164/2
f 70/183/12 57/148/12 58/154/12
f 18/46/6 11/30/6 44/110/6
f 44/110/6 56/144/6 43/107/6
f 61/165/20 56/145/20 44/109/20
f 69/181/10 62/168/10 55/142/10
f 57/149/21 58/155/21 56/146/21
f 58/156/8 57/150/8 55/143/8
f 63/169/6 31/83/6 18/46/6
f 17/45/2 32/84/2 64/171/2
f 64/172/22 63/170/22 43/108/22
f 65/173/19 66/175/19 54/140/19
f 68/179/18 67/177/18 42/104/18
f 65/174/6 68/180/6 44/110/6
f 42/105/2 67/178/2 66/176/2
f 60/162/10 69/181/10 72/187/10
f 47/119/12 70/183/12 71/185/12
f 48/122/6 71/186/6 69/182/6
f 57/151/2 70/184/2 72/188/2
