# Blender v3.0.1 OBJ File: 'man4.blend'
# www.blender.org
mtllib man4.mtl
o Cube
v 0.626575 3.005155 -2.431285
v 0.626575 0.005155 -2.324435
v -0.382114 3.005155 -2.431285
v -0.382114 0.005155 -2.324435
v 0.626575 4.230201 -2.695390
v -0.382114 4.230201 -2.695390
v 0.626575 0.839520 -3.901597
v -0.382114 0.839520 -3.901597
v 0.626575 2.517341 -3.603200
v -0.382114 2.517341 -3.603200
v -0.383211 0.005155 -1.598032
v 0.625476 0.005155 -1.599082
v -0.378796 -2.994935 -1.948233
v 0.629893 -2.994935 -2.948233
v -0.378796 -2.994935 -2.948233
v 0.629893 -2.994935 -1.948233
v 0.625476 3.005155 -1.599082
v -0.383211 3.005155 -1.598032
v 0.625476 4.230201 -1.599082
v -0.383211 4.230201 -1.598032
v 0.626575 2.083009 -3.116939
v -0.382113 2.086753 -2.603200
v 0.626575 2.083009 -3.901597
v -0.382114 2.083009 -3.901597
v 0.626575 0.839520 -3.116938
v -0.382114 0.839520 -3.116938
v 0.626576 2.086753 -2.603200
v -0.382114 2.083009 -3.116939
v -0.382114 3.505155 -2.310544
v 0.626575 3.505155 -2.310544
v -0.383211 3.505155 -1.598032
v 0.625476 3.505155 -1.599082
v -0.382114 -2.591692 -1.915149
v 0.626575 -2.591692 -1.915149
v 0.626575 -2.591692 -2.877687
v -0.382114 -2.591692 -2.877687
v -0.382114 1.065171 -3.116938
v 0.626575 1.065171 -3.901597
v -0.382114 1.065171 -3.901597
v 0.626575 1.065171 -3.116938
v -0.382585 3.005155 -0.764780
v -0.382807 0.005155 -0.871630
v 0.626102 3.005155 -0.766880
v 0.625879 0.005155 -0.873730
v -0.382035 4.230201 -0.500676
v 0.626652 4.230201 -0.502776
v -0.379523 0.839519 0.705529
v 0.629163 0.839519 0.703429
v -0.380144 2.517340 0.407133
v 0.628542 2.517340 0.405032
v 0.625128 -2.994845 -1.234586
v -0.381476 -2.994845 -0.232488
v 0.627210 -2.994845 -0.234589
v -0.383558 -2.994845 -1.232486
v -0.381157 2.083009 -0.079128
v 0.626460 2.086753 -0.594966
v -0.379523 2.083009 0.705529
v 0.629163 2.083009 0.703429
v -0.381157 0.839519 -0.079128
v 0.627530 0.839519 -0.081228
v -0.382227 2.086753 -0.592865
v 0.627530 2.083009 -0.081229
v 0.625850 3.505155 -0.887621
v -0.382836 3.505155 -0.885521
v 0.625027 -2.591692 -1.283016
v -0.383659 -2.591692 -1.280915
v -0.381655 -2.591692 -0.318379
v 0.627032 -2.591692 -0.320480
v 0.627530 1.065171 -0.081228
v -0.379523 1.065171 0.705529
v 0.629163 1.065171 0.703429
v -0.381157 1.065171 -0.079128
vt 0.733628 0.814290
vt 0.825278 0.814290
vt 0.825254 0.880887
vt 0.733603 0.880887
vt 0.693724 0.272592
vt 0.719053 0.461728
vt 0.703432 0.545175
vt 0.627817 0.545175
vt 0.627818 0.272592
vt 0.743993 0.036639
vt 0.656536 0.036639
vt 0.659542 0.000000
vt 0.750403 0.000000
vt 0.928705 0.183301
vt 0.928705 0.091651
vt 1.000000 0.091651
vt 1.000000 0.183301
vt 0.627817 0.590605
vt 0.692461 0.590605
vt 0.727429 0.656484
vt 0.627817 0.656484
vt 0.367001 0.695371
vt 0.366982 0.656484
vt 0.458632 0.656485
vt 0.458652 0.695372
vt 0.641982 0.880939
vt 0.550331 0.880939
vt 0.550331 0.774458
vt 0.641982 0.774458
vt 0.254855 0.948380
vt 0.254855 0.968883
vt 0.183560 0.968883
vt 0.183560 0.948380
vt 0.117974 0.461728
vt 0.133594 0.545175
vt 0.027113 0.500852
vt 0.000000 0.461388
vt 0.366175 0.810641
vt 0.366175 0.902292
vt 0.275314 0.902292
vt 0.275314 0.810641
vt 0.180490 0.036639
vt 0.093033 0.036639
vt 0.086623 0.000000
vt 0.177485 0.000000
vt 0.837026 0.887323
vt 0.928677 0.887389
vt 0.928957 0.923886
vt 0.837307 0.923820
vt 0.275314 0.855895
vt 0.183663 0.855898
vt 0.183560 0.756191
vt 0.275210 0.756283
vt 0.144565 0.590605
vt 0.209305 0.590605
vt 0.209305 0.656484
vt 0.109597 0.656484
vt 0.091664 0.692915
vt 0.183314 0.692754
vt 0.183560 0.925560
vt 0.091910 0.925714
vt 0.714037 0.881600
vt 0.714037 0.974082
vt 0.642742 0.974082
vt 0.642742 0.881600
vt 0.837027 0.461388
vt 0.809914 0.500852
vt 0.367001 0.787832
vt 0.458652 0.787833
vt 0.209304 0.272592
vt 0.209305 0.545175
vt 0.143302 0.272592
vt 0.928806 0.652543
vt 0.837155 0.652477
vt 0.837307 0.462851
vt 0.928957 0.462917
vt 0.733603 0.748665
vt 0.733603 0.656494
vt 0.825254 0.656484
vt 0.825254 0.748655
vt 0.641953 0.774458
vt 0.550302 0.774458
vt 0.550302 0.656484
vt 0.641953 0.656484
vt 0.928705 0.091651
vt 0.928705 0.000000
vt 1.000000 0.000000
vt 1.000000 0.091651
vt 0.733619 0.769099
vt 0.825270 0.769099
vt 0.091910 0.656645
vt 0.183560 0.656484
vt 0.733603 0.769099
vt 0.825254 0.769089
vt 0.367001 0.808331
vt 0.458652 0.808332
vt 0.714037 0.861097
vt 0.642742 0.861097
vt 0.254855 0.855898
vt 0.183560 0.855898
vt 0.458652 0.820634
vt 0.550302 0.820634
vt 0.550331 0.883427
vt 0.458681 0.883427
vt 0.275306 0.272592
vt 0.300635 0.461728
vt 0.285015 0.545175
vt 0.325575 0.036639
vt 0.238117 0.036639
vt 0.242518 0.000008
vt 0.333379 0.000008
vt 0.275314 0.993942
vt 0.275314 0.902292
vt 0.346609 0.902292
vt 0.346609 0.993942
vt 0.274044 0.590605
vt 0.309012 0.656484
vt 0.366982 0.769089
vt 0.366964 0.810641
vt 0.275314 0.810641
vt 0.275331 0.769089
vt 0.366982 0.808332
vt 0.458632 0.808332
vt 0.458632 0.914814
vt 0.366982 0.914814
vt 0.621626 0.973421
vt 0.621626 0.993924
vt 0.550331 0.993924
vt 0.550331 0.973421
vt 0.536582 0.461728
vt 0.552203 0.545175
vt 0.445721 0.500851
vt 0.418609 0.461387
vt 0.733603 0.769446
vt 0.733603 0.861097
vt 0.642742 0.861097
vt 0.642742 0.769446
vt 0.599100 0.036639
vt 0.511642 0.036639
vt 0.503838 0.000008
vt 0.594699 0.000008
vt 0.928701 0.037148
vt 0.837051 0.037147
vt 0.837054 0.000000
vt 0.928705 0.000001
vt 0.183663 0.656484
vt 0.275314 0.656672
vt 0.563173 0.590605
vt 0.528206 0.656484
vt 0.091650 0.892987
vt 0.000000 0.893008
vt 0.000013 0.656503
vt 0.091664 0.656484
vt 0.804898 0.901390
vt 0.804898 0.993872
vt 0.733603 0.993872
vt 0.733603 0.901390
vt 0.418609 0.461387
vt 0.391496 0.500851
vt 0.366976 0.676918
vt 0.275325 0.676918
vt 0.561911 0.272592
vt 0.837027 0.276425
vt 0.928677 0.276425
vt 0.928705 0.462851
vt 0.837054 0.462850
vt 0.641953 0.748948
vt 0.641953 0.656487
vt 0.733603 0.656484
vt 0.733603 0.748946
vt 0.458652 0.656484
vt 0.550302 0.656484
vt 0.550302 0.774458
vt 0.458652 0.774458
vt 0.529947 0.883427
vt 0.529947 0.975078
vt 0.458652 0.975078
vt 0.458652 0.883427
vt 0.458657 0.774458
vt 0.550307 0.774458
vt 0.091664 0.929702
vt 0.000013 0.929723
vt 0.641953 0.769447
vt 0.733603 0.769444
vt 0.366975 0.656484
vt 0.275324 0.656484
vt 0.804898 0.880887
vt 0.733603 0.880887
vt 0.621626 0.880939
vt 0.550331 0.880939
vn 0.0000 -0.4688 -0.8833
vn 1.0000 0.0000 0.0012
vn 1.0000 0.0082 0.0000
vn 0.0000 -1.0000 0.0000
vn 1.0000 0.0003 0.0012
vn 0.0000 0.5663 -0.8242
vn 0.0000 0.9232 -0.3843
vn 1.0000 0.0000 0.0000
vn -1.0000 -0.0000 0.0000
vn -1.0000 -0.0082 0.0000
vn 0.0000 0.1723 -0.9850
vn -0.0000 1.0000 0.0000
vn -1.0000 -0.0003 -0.0012
vn 0.0005 -0.1210 0.9927
vn 0.0000 0.0000 -1.0000
vn -1.0000 -0.0000 -0.0012
vn 0.0000 -0.1327 -0.9912
vn 0.0000 0.0000 1.0000
vn 0.0000 -1.0000 0.0029
vn -1.0000 0.0002 -0.0014
vn 1.0000 -0.0002 0.0014
vn 0.0000 0.2347 -0.9721
vn 0.0000 -0.0818 0.9967
vn 0.0000 0.2084 -0.9780
vn -1.0000 -0.0001 -0.0006
vn 1.0000 0.0001 0.0007
vn 0.0018 -0.4688 0.8833
vn -1.0000 0.0000 0.0008
vn -1.0000 0.0000 0.0021
vn -1.0000 0.0003 0.0009
vn 0.0017 0.5663 0.8242
vn 0.0008 0.9232 0.3843
vn 1.0000 -0.0000 -0.0021
vn 0.0020 0.2084 0.9780
vn 1.0000 -0.0003 -0.0009
vn -0.0016 -0.1210 -0.9926
vn 0.0021 0.0000 1.0000
vn 1.0000 -0.0000 -0.0008
vn 0.0021 -0.1327 0.9911
vn -0.0021 -0.0000 -1.0000
vn -0.0000 -1.0000 -0.0029
vn 1.0000 0.0002 -0.0006
vn -1.0000 -0.0002 0.0006
vn 0.0020 0.2347 0.9721
vn -0.0021 -0.1193 -0.9929
vn 1.0000 -0.0001 -0.0014
vn -1.0000 0.0001 0.0014
usemtl Material
s off
f 30/1/1 29/2/1 6/3/1 5/4/1
f 2/5/2 27/6/2 1/7/2 17/8/2 12/9/2
f 35/10/3 34/11/3 16/12/3 14/13/3
f 25/14/4 26/15/4 8/16/4 7/17/4
f 32/18/5 30/19/5 5/20/5 19/21/5
f 24/22/6 10/23/6 9/24/6 23/25/6
f 3/26/7 1/27/7 9/28/7 10/29/7
f 40/30/8 25/31/8 7/32/8 38/33/8
f 22/34/9 3/35/9 10/36/9 24/37/9
f 15/38/4 14/39/4 16/40/4 13/41/4
f 33/42/10 36/43/10 15/44/10 13/45/10
f 36/46/11 35/47/11 14/48/11 15/49/11
f 5/50/12 6/51/12 20/52/12 19/53/12
f 29/54/13 31/55/13 20/56/13 6/57/13
f 33/58/14 34/59/14 12/60/14 11/61/14
f 37/62/9 28/63/9 24/64/9 39/65/9
f 1/7/8 27/6/8 23/66/8 9/67/8
f 39/68/15 24/22/15 23/25/15 38/69/15
f 11/70/16 18/71/16 3/35/16 22/34/16 4/72/16
f 2/73/17 4/74/17 22/75/17 27/76/17
f 40/77/18 21/78/18 28/79/18 37/80/18
f 27/81/19 22/82/19 24/83/19 23/84/19
f 28/85/12 21/86/12 23/87/12 24/88/12
f 3/35/20 18/71/20 31/55/20 29/54/20
f 17/8/21 1/7/21 30/19/21 32/18/21
f 1/89/22 3/90/22 29/2/22 30/1/22
f 13/91/23 16/92/23 34/59/23 33/58/23
f 4/74/24 2/73/24 35/47/24 36/46/24
f 11/70/25 4/72/25 36/43/25 33/42/25
f 2/5/26 12/9/26 34/11/26 35/10/26
f 25/93/18 40/77/18 37/80/18 26/94/18
f 8/95/15 39/68/15 38/69/15 7/96/15
f 26/97/9 37/62/9 39/65/9 8/98/9
f 21/99/8 40/30/8 38/33/8 23/100/8
f 64/101/27 63/102/27 46/103/27 45/104/27
f 42/105/28 61/106/28 41/107/28 18/71/28 11/70/28
f 67/108/29 66/109/29 54/110/29 52/111/29
f 59/112/4 60/113/4 48/114/4 47/115/4
f 31/55/30 64/116/30 45/117/30 20/56/30
f 58/118/31 50/119/31 49/120/31 57/121/31
f 43/122/32 41/123/32 49/124/32 50/125/32
f 72/126/29 59/127/29 47/128/29 70/129/29
f 56/130/33 43/131/33 50/132/33 58/133/33
f 53/134/4 52/135/4 54/136/4 51/137/4
f 65/138/33 68/139/33 53/140/33 51/141/33
f 68/142/34 67/143/34 52/144/34 53/145/34
f 45/146/12 46/147/12 19/53/12 20/52/12
f 63/148/35 32/18/35 19/21/35 46/149/35
f 65/150/36 66/151/36 11/152/36 12/153/36
f 69/154/33 62/155/33 58/156/33 71/157/33
f 41/107/29 61/106/29 57/158/29 49/159/29
f 71/160/37 58/118/37 57/121/37 70/161/37
f 12/9/38 17/8/38 43/131/38 56/130/38 44/162/38
f 42/163/39 44/164/39 56/165/39 61/166/39
f 72/167/40 55/168/40 62/169/40 69/170/40
f 61/171/41 56/172/41 58/173/41 57/174/41
f 62/175/12 55/176/12 57/177/12 58/178/12
f 43/131/42 17/8/42 32/18/42 63/148/42
f 18/71/43 41/107/43 64/116/43 31/55/43
f 41/179/44 43/180/44 63/102/44 64/101/44
f 51/181/45 54/182/45 66/151/45 65/150/45
f 44/164/34 42/163/34 67/143/34 68/142/34
f 12/9/46 44/162/46 68/139/46 65/138/46
f 42/105/47 11/70/47 66/109/47 67/108/47
f 59/183/40 72/167/40 69/170/40 60/184/40
f 48/185/37 71/160/37 70/161/37 47/186/37
f 60/187/33 69/154/33 71/157/33 48/188/33
f 55/189/29 72/126/29 70/129/29 57/190/29
